<svg width="21" height="18" viewBox="0 0 21 18" fill="none" xmlns="http://www.w3.org/2000/svg">
<path d="M1.15006 10.2857H14.95C15.585 10.2857 16.1 9.71028 16.1 8.99996C16.1 8.28996 15.5853 7.71417 14.95 7.71417H1.15006C0.515013 7.71417 0 8.28964 0 8.99996C0 9.70995 0.514725 10.2857 1.15006 10.2857Z" fill="#090C1F" fill-opacity="0.9"/>
<path d="M1.15006 17.9999H19.5499C20.185 17.9999 20.7 17.4245 20.7 16.7141C20.7 16.0041 20.1853 15.4283 19.5499 15.4283H1.15006C0.515013 15.4283 0 16.0038 0 16.7141C0 17.4241 0.514725 17.9999 1.15006 17.9999Z" fill="#090C1F" fill-opacity="0.9"/>
<path d="M19.5499 0H1.15006C0.515013 0 0 0.575471 0 1.28579C0 1.99578 0.514725 2.57157 1.15006 2.57157H19.5499C20.185 2.57157 20.7 1.9961 20.7 1.28579C20.6997 0.575792 20.185 0 19.5497 0H19.5499Z" fill="#090C1F" fill-opacity="0.9"/>
</svg>
